<?xml version="1.0" standalone="no"?><!DOCTYPE svg PUBLIC "-//W3C//DTD SVG 1.1//EN" "http://www.w3.org/Graphics/SVG/1.1/DTD/svg11.dtd"><svg t="1763522390607" class="icon" viewBox="0 0 1024 1024" version="1.1" xmlns="http://www.w3.org/2000/svg" p-id="7030" xmlns:xlink="http://www.w3.org/1999/xlink" width="18" height="18"><path d="M512 61.44c248.832 0 450.56 201.728 450.56 450.56s-201.728 450.56-450.56 450.56S61.44 760.832 61.44 512 263.168 61.44 512 61.44z" fill="#131415" p-id="7031"></path><path d="M512 122.88C297.10336 122.88 122.88 297.10336 122.88 512s174.22336 389.12 389.12 389.12 389.12-174.22336 389.12-389.12S726.89664 122.88 512 122.88z" fill="#FFFFFF" p-id="7032"></path><path d="M491.52 276.48a30.72 30.72 0 0 1 30.57664 27.77088L522.24 307.2v193.10592l156.07808 175.59552a30.72 30.72 0 0 1-0.3072 41.1648l-2.2528 2.21184a30.72 30.72 0 0 1-41.1648-0.3072l-2.19136-2.2528-163.84-184.32a30.72 30.72 0 0 1-7.5776-17.2032L460.8 512V307.2a30.72 30.72 0 0 1 30.72-30.72z" fill="#000000" p-id="7033"></path></svg>